# xmcd CD database file
#
# Track frame offsets:
#	150
#	22485
#	45312
#	65285
#
# Disc length: 1166 seconds
#
# Revision: 2
# Processed by: cddbd v1.5PL3 Copyright (c) Steve Scherf et al.
# Submitted via: CDex 1.51
#
DISCID=2f048c04
DTITLE=上戸彩 - kizuna
DYEAR=2002
DGENRE=JPop
TTITLE0=kizuna
TTITLE1=tears
TTITLE2=Pureness -million plug style remix-
TTITLE3=kizuna -Instrumental-
EXTD=YEAR: 2002
EXTT0=
EXTT1=
EXTT2=
EXTT3=
PLAYORDER=
